# xmcd
#
# Track frame offsets: 
#        150
#        16697
#        34447
#        44207
#
# Disc length: 752 seconds
#
# Revision: 3
# Processed by: cddbd v1.5PL3 Copyright (c) Steve Scherf et al.
# Submitted via: ExactAudioCopy v0.90b4
#
DISCID=3002ee04
DTITLE=Clint Black - Nothin' But The Taillights Tour (Sponsored By ACD
DTITLE=elco)
DYEAR=1900
DGENRE=Country
TTITLE0=Tuckered Out
TTITLE1=State Of Mind
TTITLE2=You Walked By
TTITLE3=Hey Hot Rod
EXTD=
EXTT0=
EXTT1=
EXTT2=
EXTT3=
PLAYORDER=
